<?xml version="1.0" encoding="UTF-8"?>
<svg xmlns="http://www.w3.org/2000/svg" viewBox="0 0 512 512" width="512" height="512">
  <rect x="0" y="0" width="512" height="512" fill="#0D0D0D"/>
  <circle cx="123" cy="456" r="84" fill="#2F80ED" opacity="0.79"/>
  <rect x="245" y="67" width="120" height="91" fill="#FFFFFF" opacity="0.45"/>
  <polygon points="345,123 421,167 401,256 318,250 290,178" fill="#FFD166" opacity="0.62"/>
  <rect x="34" y="201" width="155" height="40" fill="#06D6A0" opacity="0.55"/>
  <circle cx="412" cy="389" r="73" fill="#2F80ED" opacity="0.82"/>
  <polygon points="178,290 234,313 251,378 207,432 142,402 130,338" fill="#FFFFFF" opacity="0.41"/>
  <rect x="312" y="245" width="69" height="160" fill="#FFD166" opacity="0.74"/>
  <circle cx="67" cy="92" r="58" fill="#06D6A0" opacity="0.91"/>
  <polygon points="234,21 312,29 340,98 290,160 211,148 200,68" fill="#2F80ED" opacity="0.66"/>
  <rect x="423" y="0" width="89" height="178" fill="#FFFFFF" opacity="0.49"/>
</svg>